<svg width="245" height="70" viewBox="0 0 245 70" fill="none" xmlns="http://www.w3.org/2000/svg">
<g clip-path="url(#clip0_7_94)">
<path d="M245 0H0V70H245V0Z" fill="#EC1C24"/>
<path d="M127.34 18.8696C127.34 13.5435 123.105 9.28267 117.812 9.13049H99.9661V12.0218V36.8261H107.225V28.4566H113.577L120.08 36.8261H127.793L120.988 27.8479C124.617 26.4783 127.34 22.9783 127.34 18.8696ZM107.225 15.2174H116.904H117.509H117.812C119.627 15.2174 121.139 16.8914 121.139 18.7175C121.139 20.5435 119.627 22.0653 117.812 22.2175H117.661H116.904H107.225V15.2174Z" fill="white"/>
<path d="M48.0926 9.13049H30.2469V36.8261H37.5062V28.4566H47.9414C53.2346 28.4566 57.6204 24.0435 57.6204 18.7175C57.4692 13.5435 53.2346 9.28267 48.0926 9.13049ZM47.9414 22.3696H47.034H37.355V15.2174H47.034H47.6389H47.9414C49.7562 15.2174 51.2686 16.8914 51.2686 18.7175C51.4198 20.6957 49.9074 22.2174 47.9414 22.3696Z" fill="white"/>
<path d="M79.5494 9.13049H72.4414L60.1914 36.8261H67.2994L68.8118 33.3261H83.1791L84.6914 36.8261H91.7994L79.5494 9.13049ZM80.4568 27.087H71.6852L76.071 17.1957L80.4568 27.087Z" fill="white"/>
<path d="M204.167 36.8261H211.275L199.025 9.13049H191.917L179.667 36.8261H186.775L188.287 33.3261H202.503L204.167 36.8261ZM191.009 27.087L195.395 17.1957L199.781 27.087H191.009Z" fill="white"/>
<path d="M155.015 22.674L145.639 9.13049H138.38V36.8261H145.488V20.8479L155.015 34.3914L164.392 20.8479V36.8261H171.5V9.13049H164.392L155.015 22.674Z" fill="white"/>
<path d="M205.83 50.0653C204.772 50.0653 203.713 50.2175 202.806 50.5218V57.3697C202.806 58.4349 204.167 58.8914 205.83 58.8914C208.401 58.8914 209.157 57.9784 209.157 54.4784C209.157 50.674 208.401 50.0653 205.83 50.0653ZM205.83 60.261C204.318 60.261 203.411 59.8045 202.806 59.3479V64.0653H201.444V49.6088C202.654 49.0001 204.469 48.6958 205.83 48.6958C209.157 48.6958 210.67 49.9132 210.67 54.3262C210.67 58.8914 209.157 60.261 205.83 60.261ZM197.059 49.0001H198.42V59.3479C197.21 59.9566 195.395 60.261 194.034 60.261C190.858 60.261 189.799 59.1958 189.799 55.2392V49.1523H191.161V54.9349C191.161 58.2827 191.917 58.8914 194.185 58.8914C195.244 58.8914 196.151 58.7392 196.907 58.4349V49.0001H197.059ZM182.238 50.0653C184.809 50.0653 185.565 50.8262 185.565 54.4784C185.565 57.9784 184.657 58.8914 182.238 58.8914C179.667 58.8914 178.911 57.9784 178.911 54.4784C178.911 50.674 179.667 50.0653 182.238 50.0653ZM182.238 60.261C185.565 60.261 187.228 58.8914 187.228 54.4784C187.228 50.0653 185.716 48.8479 182.238 48.8479C178.911 48.8479 177.398 50.0653 177.398 54.4784C177.247 58.8914 178.911 60.261 182.238 60.261ZM174.676 48.6958C173.164 48.6958 172.105 49.3045 171.651 49.761V49.0001H170.29V59.8045H171.651V51.4349C171.651 50.3697 173.012 50.0653 174.676 50.0653C175.13 50.0653 175.432 50.0653 175.735 50.2175V48.8479C175.432 48.6958 175.13 48.6958 174.676 48.6958ZM162.88 50.0653C163.938 50.0653 164.997 50.2175 165.904 50.5218V57.3697C165.904 58.4349 164.543 58.8914 162.88 58.8914C160.309 58.8914 159.553 57.9784 159.553 54.4784C159.553 50.674 160.309 50.0653 162.88 50.0653ZM167.265 49.6088C166.056 49.0001 164.241 48.6958 162.88 48.6958C159.553 48.6958 158.04 49.9132 158.04 54.3262C158.04 58.7392 159.553 60.1088 162.88 60.1088C164.392 60.1088 165.299 59.6523 165.904 59.1958C165.904 62.0871 164.543 62.8479 161.972 62.8479C161.216 62.8479 159.704 62.5436 158.948 62.2392L158.494 63.6088C159.25 63.9131 161.065 64.2175 161.972 64.2175C165.299 64.2175 167.265 63.1523 167.265 59.0436V49.6088ZM148.361 50.674L148.815 49.3045C147.605 49.0001 146.244 48.6958 145.336 48.6958C142.463 48.6958 141.102 49.4566 141.102 52.0436C141.102 54.0218 142.463 54.7827 145.185 54.9349C147.303 55.0871 147.907 55.6958 147.907 56.761C147.907 58.4349 147 58.7392 145.185 58.7392C144.127 58.7392 142.463 58.4349 141.707 58.1305L141.253 59.5001C142.312 59.8045 144.127 60.1088 145.185 60.1088C148.059 60.1088 149.42 59.1958 149.42 56.761C149.42 54.7827 148.21 53.8697 145.488 53.7175C143.522 53.5653 142.765 53.1088 142.765 52.0436C142.765 50.3697 143.673 50.0653 145.488 50.0653C146.395 50.0653 147.454 50.2175 148.361 50.674ZM134.448 50.0653C136.414 50.0653 137.17 50.674 137.321 53.4131H131.272C131.272 50.8262 132.179 50.0653 134.448 50.0653ZM134.448 48.6958C131.272 48.6958 129.608 50.0653 129.608 54.3262C129.608 58.7392 131.423 60.1088 134.599 60.1088C135.506 60.1088 137.019 59.8045 138.077 59.5001L137.775 58.2827C136.867 58.5871 135.506 58.8914 134.75 58.8914C132.179 58.8914 131.12 58.1305 131.12 54.6305H138.833C138.833 49.9132 137.472 48.6958 134.448 48.6958ZM126.281 44.8914C125.525 44.8914 125.373 45.0436 125.373 45.8045C125.373 46.5653 125.525 46.7175 126.281 46.7175C126.886 46.7175 127.188 46.5653 127.188 45.8045C127.037 45.0436 126.886 44.8914 126.281 44.8914ZM126.886 59.9566H125.525V49.1523H126.886V59.9566ZM118.114 50.0653C119.173 50.0653 120.232 50.2175 121.139 50.5218V57.3697C121.139 58.4349 119.778 58.8914 118.114 58.8914C115.543 58.8914 114.787 57.9784 114.787 54.4784C114.787 50.674 115.543 50.0653 118.114 50.0653ZM122.5 49.6088C121.29 49.0001 119.475 48.6958 118.114 48.6958C114.787 48.6958 113.275 49.9132 113.275 54.3262C113.275 58.7392 114.787 60.1088 118.114 60.1088C119.627 60.1088 120.534 59.6523 121.139 59.1958C121.139 62.0871 119.778 62.8479 117.207 62.8479C116.451 62.8479 114.938 62.5436 114.182 62.2392L113.728 63.6088C114.485 63.9131 116.299 64.2175 117.207 64.2175C120.534 64.2175 122.5 63.1523 122.5 59.0436V49.6088ZM105.864 50.0653C108.435 50.0653 109.191 50.8262 109.191 54.4784C109.191 57.9784 108.284 58.8914 105.864 58.8914C103.293 58.8914 102.537 57.9784 102.537 54.4784C102.537 50.674 103.293 50.0653 105.864 50.0653ZM105.864 60.261C109.191 60.261 110.855 58.8914 110.855 54.4784C110.855 50.0653 109.343 48.8479 105.864 48.8479C102.537 48.8479 101.025 50.0653 101.025 54.4784C101.025 58.8914 102.537 60.261 105.864 60.261ZM98.1513 44.2827H96.7902V57.0653C96.7902 58.5871 97.2439 59.3479 98.1513 60.261L99.2099 59.3479C98.4537 58.5871 98.1513 58.1305 98.1513 57.0653V44.2827ZM89.0772 50.0653C91.6482 50.0653 92.4044 50.8262 92.4044 54.4784C92.4044 57.9784 91.497 58.8914 89.0772 58.8914C86.5062 58.8914 85.75 57.9784 85.75 54.4784C85.75 50.674 86.6574 50.0653 89.0772 50.0653ZM89.0772 60.261C92.4044 60.261 94.0679 58.8914 94.0679 54.4784C94.0679 50.0653 92.5556 48.8479 89.0772 48.8479C85.75 48.8479 84.2377 50.0653 84.2377 54.4784C84.2377 58.8914 85.75 60.261 89.0772 60.261ZM74.4074 50.3697C75.3149 50.0653 76.071 50.0653 77.1297 50.0653C79.5494 50.0653 80.3056 50.674 80.3056 54.0218V59.8045H81.6667V53.7175C81.6667 49.761 80.6081 48.6958 77.4321 48.6958C76.071 48.6958 74.2562 49.0001 73.0463 49.6088V59.9566H74.4074V50.3697ZM65.9383 48.6958C64.5772 48.6958 63.3673 49.1523 62.7624 49.6088V44.4349H61.4013V59.9566H62.7624V51.5871C62.7624 50.5218 64.2747 50.0653 65.7871 50.0653C67.9044 50.0653 68.6605 50.674 68.6605 54.0218V59.8045H70.0216V53.7175C70.0216 49.761 68.8118 48.6958 65.9383 48.6958ZM58.8303 58.2827C58.0741 58.5871 57.1667 58.8914 56.2593 58.8914C53.6883 58.8914 52.6297 57.9784 52.6297 54.4784C52.6297 50.8262 53.8395 50.0653 56.2593 50.0653C57.1667 50.0653 58.0741 50.2175 58.8303 50.5218L59.284 49.1523C58.5278 48.8479 57.1667 48.5436 56.2593 48.5436C52.9321 48.5436 51.1173 49.761 51.1173 54.174C51.1173 58.5871 52.9321 59.9566 56.2593 59.9566C57.1667 59.9566 58.5278 59.6523 59.284 59.3479L58.8303 58.2827ZM44.3118 50.0653C46.2778 50.0653 47.034 50.674 47.1852 53.4131H41.1358C41.1358 50.8262 42.0432 50.0653 44.3118 50.0653ZM44.3118 48.6958C41.1358 48.6958 39.4723 50.0653 39.4723 54.3262C39.4723 58.7392 41.2871 60.1088 44.463 60.1088C45.3704 60.1088 46.8828 59.8045 47.9414 59.5001L47.6389 58.2827C46.7315 58.5871 45.3704 58.8914 44.6142 58.8914C42.0432 58.8914 40.9846 58.1305 40.9846 54.6305H48.6976C48.6976 49.9132 47.3365 48.6958 44.3118 48.6958ZM33.5741 56.3045C33.5741 58.1305 34.0278 58.8914 35.5402 58.8914C36.2963 58.8914 37.0525 58.7392 37.6574 58.5871L37.9599 59.8045C37.355 59.9566 36.2963 60.261 35.5402 60.261C33.1204 60.261 32.213 59.5001 32.213 56.3045V50.3697H30.2469V49.1523H32.213V46.8697L33.5741 46.261V49.1523H37.5062V50.3697H33.5741V56.3045Z" fill="white"/>
</g>
<defs>
<clipPath id="clip0_7_94">
<rect width="245" height="70" fill="white"/>
</clipPath>
</defs>
</svg>
